<?xml version="1.0" encoding="UTF-8"?>
<svg version="1.1" xmlns="http://www.w3.org/2000/svg" width="343" height="343">
<path d="M0 0 C9.49780939 8.00779844 18.28002119 16.46978771 25.72119141 26.45117188 C26.11612793 26.97114746 26.51106445 27.49112305 26.91796875 28.02685547 C55.55069537 65.85777575 66.26367191 111.15530846 61.09619141 158.09570312 C55.35282369 199.23296198 32.48875797 240.71241205 -0.45458984 266.34570312 C-1.38658203 267.04050781 -2.31857422 267.7353125 -3.27880859 268.45117188 C-3.79878418 268.8461084 -4.31875977 269.24104492 -4.85449219 269.64794922 C-42.68541247 298.28067584 -87.98294518 308.99365238 -134.92333984 303.82617188 C-176.0605987 298.08280416 -217.54004877 275.21873844 -243.17333984 242.27539062 C-243.86814453 241.34339844 -244.56294922 240.41140625 -245.27880859 239.45117188 C-245.67374512 238.93119629 -246.06868164 238.4112207 -246.47558594 237.87548828 C-275.10831256 200.044568 -285.8212891 154.74703529 -280.65380859 107.80664062 C-274.91044088 66.66938177 -252.04637516 25.1899317 -219.10302734 -0.44335938 C-218.17103516 -1.13816406 -217.23904297 -1.83296875 -216.27880859 -2.54882812 C-215.75883301 -2.94376465 -215.23885742 -3.33870117 -214.703125 -3.74560547 C-151.17175904 -51.82998248 -61.86003282 -50.69469237 0 0 Z " fill="#000101" transform="translate(281.27880859375,38.548828125)"/>
<path d="M0 0 C11.55 0 23.1 0 35 0 C37.24508519 7.85779817 37.24508519 7.85779817 37.78125 11.6640625 C37.90113281 12.47617188 38.02101562 13.28828125 38.14453125 14.125 C38.38259929 15.7993247 38.61956864 17.47380597 38.85546875 19.1484375 C39.48725582 23.4146986 40.35204558 26.99972355 42 31 C42.495 34.465 42.495 34.465 43 38 C43 25.79 43 13.58 43 1 C54.55 1 66.1 1 78 1 C79.65 5.29 81.3 9.58 83 14 C84.85745757 17.66910983 84.85745757 17.66910983 86.7421875 21.32421875 C88.77836223 25.65583269 90.26152332 30.17176717 91.7890625 34.703125 C92.94279366 38.04639808 92.94279366 38.04639808 94.6484375 41.234375 C96 44 96 44 96 47 C64.32 47 32.64 47 0 47 C0 31.49 0 15.98 0 0 Z " fill="#A5E6D2" transform="translate(179,93)"/>
<path d="M0 0 C11.55 0 23.1 0 35 0 C36.09726646 15.77320542 36 31.07025002 36 47 C4.32 47 -27.36 47 -60 47 C-57.85549335 37.34972008 -57.85549335 37.34972008 -55.06640625 32.15234375 C-53.85895961 29.71533607 -52.96166219 27.25393459 -52.0625 24.6875 C-50.37362675 19.89349366 -48.3990901 15.30559589 -46.24609375 10.703125 C-44.76807761 7.49689562 -43.39073255 4.24504261 -42 1 C-30.78 1 -19.56 1 -8 1 C-7.67 12.88 -7.34 24.76 -7 37 C-6.030625 32.565625 -5.06125 28.13125 -4.0625 23.5625 C-3.75836182 22.18263916 -3.45422363 20.80277832 -3.14086914 19.38110352 C-2.89973389 18.26662842 -2.65859863 17.15215332 -2.41015625 16.00390625 C-2.16402588 14.87799072 -1.91789551 13.7520752 -1.66430664 12.59204102 C-0.89436095 8.4287882 -0.46755058 4.20795519 0 0 Z " fill="#7CDEBF" transform="translate(137,93)"/>
<path d="M0 0 C0.23368566 4.01984283 0.3748607 8.03793087 0.5 12.0625 C0.60054687 13.7630957 0.60054687 13.7630957 0.703125 15.49804688 C0.89635246 23.78267411 0.89635246 23.78267411 -1.56069946 27.11956787 C-3.62241005 28.90185408 -5.76637296 30.44075095 -8 32 C-9.23579669 33.13977044 -10.44680211 34.30706091 -11.63037109 35.50097656 C-12.52071548 36.38659271 -12.52071548 36.38659271 -13.42904663 37.2901001 C-14.03769562 37.90077332 -14.6463446 38.51144653 -15.2734375 39.140625 C-15.92325592 39.78948669 -16.57307434 40.43834839 -17.24258423 41.10687256 C-18.59996209 42.46357601 -19.95610254 43.82151855 -21.31103516 45.18066406 C-23.38720931 47.26224108 -25.46872963 49.33836605 -27.55078125 51.4140625 C-28.87532113 52.73926244 -30.19955118 54.06477215 -31.5234375 55.390625 C-32.14423187 56.00939514 -32.76502625 56.62816528 -33.40463257 57.26568604 C-33.97928253 57.84348816 -34.5539325 58.42129028 -35.14599609 59.01660156 C-35.65037201 59.52177307 -36.15474792 60.02694458 -36.67440796 60.54742432 C-38.22326922 62.17117072 -38.22326922 62.17117072 -40 65 C-41.9375 64.6875 -41.9375 64.6875 -44 64 C-44.33 63.01 -44.66 62.02 -45 61 C-46.40269502 59.5634755 -46.40269502 59.5634755 -48.21484375 58.13671875 C-53.99766247 53.22409869 -59.37676382 47.91840117 -64.7668457 42.58325195 C-65.97481477 41.39203514 -67.18814759 40.20623564 -68.40649414 39.02563477 C-70.18025809 37.30630253 -71.93730376 35.57139006 -73.69140625 33.83203125 C-74.24018936 33.30591751 -74.78897247 32.77980377 -75.35438538 32.23774719 C-78.98622899 28.58498397 -78.98622899 28.58498397 -79.04736328 25.98803711 C-61.91687911 -6.52793785 -32.72586548 -2.79854696 0 0 Z " fill="#BEF1E1" transform="translate(260,186)"/>
<path d="M0 0 C50.62104919 -4.52534374 50.62104919 -4.52534374 63.1875 5.42578125 C65.62396159 7.55888494 67.81028511 9.81035055 69.9375 12.25 C70.44401093 12.83087372 70.95052185 13.41174744 71.47238159 14.01022339 C74.36578082 17.45769702 77.0381566 20.92804485 79 25 C78.61510759 28.50382063 77.16848596 30.21773862 74.73706055 32.68286133 C74.04932053 33.38651321 73.36158051 34.0901651 72.65299988 34.81513977 C71.90512711 35.56321396 71.15725433 36.31128815 70.38671875 37.08203125 C69.23777885 38.24239143 69.23777885 38.24239143 68.06562805 39.42619324 C66.44452726 41.05809718 64.81943261 42.68604195 63.19067383 44.31030273 C60.69355763 46.80644473 58.21852472 49.32314391 55.74414062 51.84179688 C54.1679688 53.42317392 52.59053669 55.00329603 51.01171875 56.58203125 C50.26991867 57.34022659 49.52811859 58.09842194 48.76383972 58.8795929 C48.06664322 59.56748398 47.36944672 60.25537506 46.65112305 60.96411133 C46.04125046 61.57603836 45.43137787 62.18796539 44.80302429 62.81843567 C43 64 43 64 41.02394104 63.89678955 C38.57702283 62.81258273 36.95326638 61.48370939 34.96582031 59.68725586 C34.18531311 58.98398666 33.40480591 58.28071747 32.60064697 57.55613708 C29.05004231 54.26062286 25.52972397 50.93571821 22.03564453 47.58032227 C20.19516669 45.83420722 18.33097717 44.11271338 16.44287109 42.41821289 C-0.0665393 27.57775486 -0.0665393 27.57775486 -1.20117188 17.33642578 C-1.39113535 11.49026008 -0.94201647 5.76921566 0 0 Z " fill="#61DBB4" transform="translate(91,186)"/>
<path d="M0 0 C11.55 0 23.1 0 35 0 C37.24721824 7.86526385 37.24721824 7.86526385 37.81640625 11.76953125 C37.94080078 12.59517578 38.06519531 13.42082031 38.19335938 14.27148438 C38.31517578 15.11001953 38.43699219 15.94855469 38.5625 16.8125 C38.81074928 18.50696048 39.06190987 20.20099778 39.31640625 21.89453125 C39.42412354 22.63550049 39.53184082 23.37646973 39.64282227 24.13989258 C39.9291006 26.0836375 39.9291006 26.0836375 41 28 C41.2059615 29.72492753 41.3662163 31.45547891 41.5 33.1875 C41.83902845 37.51616679 42.38262855 41.67839987 43 46 C28.81 46 14.62 46 0 46 C0 30.82 0 15.64 0 0 Z " fill="#D4F5EA" transform="translate(179,93)"/>
<path d="M0 0 C11.55 0 23.1 0 35 0 C35 15.18 35 30.36 35 46 C20.81 46 6.62 46 -8 46 C-6.74518721 37.21631047 -5.42538714 28.78201501 -3.4375 20.1875 C-2.99413057 18.26537073 -2.55525863 16.342198 -2.12109375 14.41796875 C-1.9295874 13.59063232 -1.73808105 12.7632959 -1.54077148 11.91088867 C-0.8095536 7.9748567 -0.44209903 3.97889127 0 0 Z " fill="#ADEDD9" transform="translate(137,93)"/>
<path d="M0 0 C2.40370043 1.06544116 3.81580599 2.32378462 5.67471313 4.18460083 C6.37513733 4.87879623 7.07556152 5.57299164 7.79721069 6.28822327 C8.54214783 7.04237015 9.28708496 7.79651703 10.05459595 8.57351685 C10.82579773 9.34422012 11.59699951 10.1149234 12.39157104 10.90898132 C14.01901637 12.53876653 15.64277087 14.17224438 17.26309204 15.80911255 C19.75318533 18.32284442 22.25637468 20.82294927 24.7616272 23.32156372 C26.33924494 24.90475647 27.91609467 26.48871497 29.49209595 28.07351685 C30.24513 28.8256395 30.99816406 29.57776215 31.77401733 30.35267639 C32.46183289 31.05002396 33.14964844 31.74737152 33.85830688 32.46585083 C34.46801331 33.08016464 35.07771973 33.69447845 35.7059021 34.32740784 C37.00772095 35.8899231 37.00772095 35.8899231 37.00772095 37.8899231 C12.25772095 37.8899231 -12.49227905 37.8899231 -37.99227905 37.8899231 C-36.31015922 34.52568343 -35.23473465 32.87174915 -32.70761108 30.29885864 C-32.03996735 29.61522751 -31.37232361 28.93159637 -30.68444824 28.22724915 C-29.96361053 27.50104874 -29.24277283 26.77484833 -28.50009155 26.02664185 C-27.75774261 25.27526443 -27.01539368 24.52388702 -26.25054932 23.7497406 C-24.68136149 22.16606083 -23.10936001 20.5851647 -21.53475952 19.00686646 C-19.12100377 16.58116625 -16.72652462 14.13744446 -14.3321228 11.69265747 C-12.80593069 10.15700686 -11.27862429 8.62246269 -9.75009155 7.08914185 C-8.67490768 5.9846595 -8.67490768 5.9846595 -7.57800293 4.85786438 C-6.90405487 4.18999405 -6.23010681 3.52212372 -5.53573608 2.83401489 C-4.94664459 2.23985275 -4.3575531 1.64569061 -3.75061035 1.03352356 C-1.99227905 -0.1100769 -1.99227905 -0.1100769 0 0 Z " fill="#B8EDDC" transform="translate(175.99227905273438,218.11007690429688)"/>
<path d="M0 0 C14.52 0 29.04 0 44 0 C44 11.45945946 44 11.45945946 40 16 C34.06929009 21.61856728 28.0464173 22.53271424 20.1015625 22.375 C12.4219952 21.44648808 6.80983426 17.59758284 2.05859375 11.6484375 C-0.53942455 7.60281491 0 5.13106519 0 0 Z " fill="#AEEED9" transform="translate(181,146)"/>
<path d="M0 0 C14.52 0 29.04 0 44 0 C42.86218679 9.10250572 41.01450023 12.82185398 34 18.375 C26.64276639 22.3601682 18.83386323 23.51354744 10.62109375 21.3828125 C4.98638135 18.96640832 2.52135586 15.51546594 0 10 C0 6.7 0 3.4 0 0 Z " fill="#CEF4E8" transform="translate(127,146)"/>
<path d="M0 0 C14.52 0 29.04 0 44 0 C45.99164093 3.98328185 45.65647247 8.67978592 45 13 C42.375 16 42.375 16 39 18 C37.700625 18.8971875 37.700625 18.8971875 36.375 19.8125 C29.8104301 22.12225607 22.734384 22.04473932 16.25 19.4375 C9.43063518 15.93499502 3.61813797 10.78400869 0 4 C0 2.68 0 1.36 0 0 Z " fill="#62D8B2" transform="translate(235,147)"/>
<path d="M0 0 C14.52 0 29.04 0 44 0 C40.74875118 9.75374645 36.72075418 14.1757468 27.5859375 18.87109375 C21.22819504 21.64660368 13.44080747 22.42851149 6.765625 20.28125 C2.93070155 18.24906834 0.49743172 16.05187407 -1 12 C-1.71718539 3.43437077 -1.71718539 3.43437077 0 0 Z " fill="#94E8CD" transform="translate(73,147)"/>
<path d="M0 0 C2 0 2 0 4.0625 1.875 C6.36853403 4.26693214 8.5521954 6.75887138 10.75 9.25 C15.29348146 14.33253858 20.06103488 19.17387329 24.875 24 C25.62491211 24.75442383 26.37482422 25.50884766 27.14746094 26.28613281 C28.21528809 27.35105957 28.21528809 27.35105957 29.3046875 28.4375 C29.94390137 29.07558594 30.58311523 29.71367187 31.24169922 30.37109375 C33.1084438 32.18679798 33.1084438 32.18679798 36 34 C36 34.66 36 35.32 36 36 C31.7709638 36.08725659 27.54215988 36.1404789 23.3125 36.1875 C22.11431641 36.21263672 20.91613281 36.23777344 19.68164062 36.26367188 C18.52470703 36.27333984 17.36777344 36.28300781 16.17578125 36.29296875 C15.11270752 36.3086792 14.04963379 36.32438965 12.9543457 36.34057617 C8.84250035 35.86656375 6.31996391 34.33247639 3.42895508 31.4140625 C-0.82595582 25.18429485 -0.58602684 19.34735178 -0.3125 12 C-0.28994141 10.84371094 -0.26738281 9.68742188 -0.24414062 8.49609375 C-0.18559934 5.66269566 -0.10365035 2.83204636 0 0 Z " fill="#53CDA6" transform="translate(91,220)"/>
<path d="M0 0 C0.11633933 4.22893468 0.18729952 8.45745674 0.25 12.6875 C0.30027344 14.48477539 0.30027344 14.48477539 0.3515625 16.31835938 C0.36445313 17.47529297 0.37734375 18.63222656 0.390625 19.82421875 C0.41157227 20.88729248 0.43251953 21.95036621 0.45410156 23.0456543 C-0.11043549 26.71848381 -1.4059985 28.38941666 -4 31 C-4.66 31 -5.32 31 -6 31 C-6 31.66 -6 32.32 -6 33 C-9.49336818 35.32891212 -10.86007865 35.23551143 -14.98046875 35.1953125 C-16.72553711 35.18564453 -16.72553711 35.18564453 -18.50585938 35.17578125 C-19.72080078 35.15902344 -20.93574219 35.14226562 -22.1875 35.125 C-23.41404297 35.11597656 -24.64058594 35.10695313 -25.90429688 35.09765625 C-28.93639295 35.07406017 -31.96809938 35.04113841 -35 35 C-33.67365058 32.06254084 -32.2306634 29.97856521 -29.95898438 27.70019531 C-29.34494751 27.07985413 -28.73091064 26.45951294 -28.0982666 25.82037354 C-27.43677612 25.16293152 -26.77528564 24.5054895 -26.09375 23.828125 C-25.41324585 23.1457074 -24.7327417 22.46328979 -24.03161621 21.76019287 C-22.59498803 20.32220573 -21.15583915 18.88673308 -19.71435547 17.45361328 C-17.50123571 15.25122972 -15.29901528 13.03835067 -13.09765625 10.82421875 C-11.70116197 9.42904546 -10.30404773 8.03449238 -8.90625 6.640625 C-8.24475952 5.97508606 -7.58326904 5.30954712 -6.9017334 4.62384033 C-6.28769653 4.01610779 -5.67365967 3.40837524 -5.04101562 2.78222656 C-4.23065857 1.97425629 -4.23065857 1.97425629 -3.40393066 1.14996338 C-2 0 -2 0 0 0 Z " fill="#8CE4C8" transform="translate(260,221)"/>
<path d="M0 0 C0.66 0 1.32 0 2 0 C2.93016247 1.3596961 3.79419404 2.76491884 4.625 4.1875 C9.24579671 11.26309497 14.17542516 13.70736472 22.3125 15.5625 C23.82263672 15.84287109 23.82263672 15.84287109 25.36328125 16.12890625 C28 17 28 17 31 21 C11.53 21 -7.94 21 -28 21 C-26 17 -26 17 -23.828125 16.05859375 C-22.97734375 15.85363281 -22.1265625 15.64867187 -21.25 15.4375 C-12.97072735 13.20435329 -5.86514146 9.54470715 -1.1875 2.125 C-0.795625 1.42375 -0.40375 0.7225 0 0 Z " fill="#93E2C8" transform="translate(175,158)"/>
<path d="M0 0 C13.53 0 27.06 0 41 0 C39.2364992 3.52700161 38.06434816 5.16601169 35.33984375 7.8203125 C34.62892578 8.52027344 33.91800781 9.22023437 33.18554688 9.94140625 C32.44369141 10.66199219 31.70183594 11.38257813 30.9375 12.125 C29.46526807 13.56287561 27.99510844 15.00287708 26.52734375 16.4453125 C25.87499756 17.07969238 25.22265137 17.71407227 24.55053711 18.36767578 C22.91114 19.93459167 22.91114 19.93459167 22 22 C18.89966768 20.62297371 16.80573396 19.0432727 14.43359375 16.62890625 C13.4580957 15.64374023 13.4580957 15.64374023 12.46289062 14.63867188 C11.79451172 13.95353516 11.12613281 13.26839844 10.4375 12.5625 C9.76525391 11.88123047 9.09300781 11.19996094 8.40039062 10.49804688 C7.14930384 9.22956663 5.90028686 7.95903913 4.65405273 6.68579102 C3.55646127 5.56713875 2.43320525 4.47307377 1.28540039 3.40600586 C0 2 0 2 0 0 Z " fill="#A1E5CF" transform="translate(155,186)"/>
<path d="M0 0 C0.33 0.99 0.66 1.98 1 3 C-2.11692909 6.17469938 -5.24483546 9.33835392 -8.375 12.5 C-9.70917969 13.85931641 -9.70917969 13.85931641 -11.0703125 15.24609375 C-11.92109375 16.10332031 -12.771875 16.96054688 -13.6484375 17.84375 C-14.43395996 18.63974609 -15.21948242 19.43574219 -16.02880859 20.25585938 C-18 22 -18 22 -20 22 C-20 22.66 -20 23.32 -20 24 C0.46 24.33 20.92 24.66 42 25 C41.505 23.02 41.505 23.02 41 21 C42.1725131 21.95117134 43.33787015 22.91117009 44.5 23.875 C45.47453125 24.67550781 45.47453125 24.67550781 46.46875 25.4921875 C46.9740625 25.98976562 47.479375 26.48734375 48 27 C48 27.66 48 28.32 48 29 C23.25 29 -1.5 29 -27 29 C-24.95538352 24.91076705 -22.53996717 22.2830098 -19.3359375 19.140625 C-18.78386627 18.59138367 -18.23179504 18.04214233 -17.66299438 17.47625732 C-15.90498185 15.72940707 -14.1401311 13.98965399 -12.375 12.25 C-11.1792292 11.06426409 -9.98391135 9.8780712 -8.7890625 8.69140625 C-5.86459747 5.78894915 -2.93398126 2.8928359 0 0 Z " fill="#46B390" transform="translate(165,227)"/>
<path d="M0 0 C3.55685698 0.33345534 5.67229138 1.40059125 8.5 3.4375 C13.82728372 6.98219263 19.75883054 7.36256349 26 8 C26 9.65 26 11.3 26 13 C13.79 13 1.58 13 -11 13 C-8.93622984 8.87245969 -7.5152722 7.76199959 -4 5 C-2.62631655 3.36643049 -1.28062485 1.7074998 0 0 Z " fill="#A4E8D2" transform="translate(235,166)"/>
<path d="M0 0 C3 0 3 0 4.6484375 1.5390625 C5.21820313 2.22742188 5.78796875 2.91578125 6.375 3.625 C7.22191406 4.63433594 7.22191406 4.63433594 8.0859375 5.6640625 C9.03339844 6.82035156 9.03339844 6.82035156 10 8 C12.475 10.97 12.475 10.97 15 14 C3.12 14 -8.76 14 -21 14 C-21 12.68 -21 11.36 -21 10 C-19.46279297 9.65388672 -19.46279297 9.65388672 -17.89453125 9.30078125 C-16.53362854 8.97228749 -15.17296353 8.64280789 -13.8125 8.3125 C-13.13896484 8.16361328 -12.46542969 8.01472656 -11.77148438 7.86132812 C-6.9061442 6.65092642 -4.34683289 4.90148693 -1 1 C-0.67 0.67 -0.34 0.34 0 0 Z " fill="#50CFA6" transform="translate(113,165)"/>
<path d="M0 0 C14.52 0 29.04 0 44 0 C42.86218679 9.10250572 41.01450023 12.82185398 34 18.375 C26.64276639 22.3601682 18.83386323 23.51354744 10.62109375 21.3828125 C4.98638135 18.96640832 2.52135586 15.51546594 0 10 C0 6.7 0 3.4 0 0 Z M2 3 C1.87117006 10.53524663 1.87117006 10.53524663 6 16 C10.88670308 19.71389434 15.98403917 20.75254101 22.05078125 20.515625 C28.52672597 19.38340685 35.74793158 16.38201004 39.75 10.9375 C41.32629597 7.76527084 41.32629597 7.76527084 41 3 C28.13 3 15.26 3 2 3 Z " fill="#6BD5B3" transform="translate(127,146)"/>
<path d="M0 0 C0.66 0.33 1.32 0.66 2 1 C-0.72478774 4.36591427 -4.06856792 5.44226276 -8 7 C-8 7.33 -8 7.66 -8 8 C6.19 8.33 20.38 8.66 35 9 C35 8.34 35 7.68 35 7 C38.875 8.75 38.875 8.75 40 11 C20.53 11 1.06 11 -19 11 C-17 7 -17 7 -14.828125 6.05859375 C-13.97734375 5.85363281 -13.1265625 5.64867187 -12.25 5.4375 C-5.60051284 3.76490495 -5.60051284 3.76490495 0 0 Z " fill="#4DC7A0" transform="translate(166,168)"/>
<path d="M0 0 C11.55 0 23.1 0 35 0 C35 5.94 35 11.88 35 18 C32.64880601 14.47320901 32.78556548 12.97120515 32.875 8.8125 C32.89304688 7.72582031 32.91109375 6.63914062 32.9296875 5.51953125 C32.95289063 4.68808594 32.97609375 3.85664062 33 3 C29.04858778 3.09348407 25.0977363 3.19956488 21.14697266 3.31738281 C19.14113029 3.37454036 17.13501082 3.42168596 15.12890625 3.46875 C13.24365234 3.52675781 13.24365234 3.52675781 11.3203125 3.5859375 C10.15773926 3.6173584 8.99516602 3.6487793 7.79736328 3.68115234 C4.86343518 3.72157869 4.86343518 3.72157869 3 6 C2.3574765 8.06874034 2.3574765 8.06874034 2 10 C1.34 10 0.68 10 0 10 C-0.33 11.98 -0.66 13.96 -1 16 C-2 12 -2 12 0 0 Z " fill="#57BA9A" transform="translate(137,93)"/>
<path d="M0 0 C2.475 0.99 2.475 0.99 5 2 C5 3.32 5 4.64 5 6 C6.32 6.33 7.64 6.66 9 7 C9 7.99 9 8.98 9 10 C9.55816406 10.06058594 10.11632812 10.12117187 10.69140625 10.18359375 C14.92931223 11.68227793 17.50478747 15.58564678 20.46484375 18.84765625 C22.80041757 21.21478635 22.80041757 21.21478635 25.71484375 21.40234375 C28.45743171 20.91946074 29.16104723 20.00613029 31 18 C31.99 18 32.98 18 34 18 C34.2475 17.360625 34.495 16.72125 34.75 16.0625 C36 14 36 14 38.078125 13.37109375 C38.71234375 13.24863281 39.3465625 13.12617188 40 13 C35.70214922 18.03163018 31.36574458 23.02718443 27 28 C25.0625 27.6875 25.0625 27.6875 23 27 C22.67 26.01 22.34 25.02 22 24 C20.64444232 22.62596838 20.64444232 22.62596838 18.875 21.25 C11.82496158 15.29749503 5.47774028 8.55997721 -1 2 C-0.67 1.34 -0.34 0.68 0 0 Z " fill="#74CFB2" transform="translate(193,223)"/>
<path d="M0 0 C0.33 0.99 0.66 1.98 1 3 C-2.11692909 6.17469938 -5.24483546 9.33835392 -8.375 12.5 C-9.26445312 13.40621094 -10.15390625 14.31242188 -11.0703125 15.24609375 C-11.92109375 16.10332031 -12.771875 16.96054688 -13.6484375 17.84375 C-14.43395996 18.63974609 -15.21948242 19.43574219 -16.02880859 20.25585938 C-18 22 -18 22 -20 22 C-20 22.66 -20 23.32 -20 24 C0.46 24.33 20.92 24.66 42 25 C41.505 23.02 41.505 23.02 41 21 C41.66 21.33 42.32 21.66 43 22 C43.495 23.98 43.495 23.98 44 26 C22.22 26 0.44 26 -22 26 C-20.91536671 20.57683353 -20.10684092 19.62523994 -16.30859375 15.91796875 C-15.84389175 15.45892654 -15.37918976 14.99988434 -14.90040588 14.52693176 C-13.42193317 13.07075265 -11.93013843 11.62914096 -10.4375 10.1875 C-9.42942493 9.19949902 -8.4222527 8.21057596 -7.41601562 7.22070312 C-4.95437546 4.80303607 -2.48059327 2.39823416 0 0 Z " fill="#82E2C4" transform="translate(165,227)"/>
<path d="M0 0 C2.84383123 1.2748209 5.13754018 2.45137078 7 5 C6.47863166 11.05854645 0.21861515 15.29259017 -3.8125 19.3125 C-4.72837891 20.25673828 -5.64425781 21.20097656 -6.58789062 22.17382812 C-7.91530273 23.50510742 -7.91530273 23.50510742 -9.26953125 24.86328125 C-10.48539917 26.08978394 -10.48539917 26.08978394 -11.72583008 27.34106445 C-14 29 -14 29 -16.2956543 28.75854492 C-16.85808838 28.5082251 -17.42052246 28.25790527 -18 28 C-16.71480435 25.13302508 -15.42870746 23.02392288 -13 21 C-12.34 21 -11.68 21 -11 21 C-11 20.34 -11 19.68 -11 19 C-10.34 19 -9.68 19 -9 19 C-9 18.34 -9 17.68 -9 17 C-8.34 17 -7.68 17 -7 17 C-6.731875 16.401875 -6.46375 15.80375 -6.1875 15.1875 C-5.00082594 13.00152146 -3.90400887 11.58667406 -2 10 C-1.34 10 -0.68 10 0 10 C0 9.34 0 8.68 0 8 C0.66 7.67 1.32 7.34 2 7 C2 5.68 2 4.36 2 3 C1.34 2.67 0.68 2.34 0 2 C0 1.34 0 0.68 0 0 Z " fill="#B9E5D7" transform="translate(163,206)"/>
<path d="M0 0 C0.66 0.33 1.32 0.66 2 1 C0.35 2.98 -1.3 4.96 -3 7 C9.375 6.505 9.375 6.505 22 6 C22 5.67 22 5.34 22 5 C24.31 5 26.62 5 29 5 C29 6.65 29 8.3 29 10 C16.79 10 4.58 10 -8 10 C-5.97441262 5.94882524 -4.47973456 4.67671889 -1 2 C-0.67 1.34 -0.34 0.68 0 0 Z " fill="#53C09D" transform="translate(232,169)"/>
<path d="M0 0 C14.52 0 29.04 0 44 0 C44 11.54285714 44 11.54285714 40 16 C39.01 16.33 38.02 16.66 37 17 C37.375 15.0625 37.375 15.0625 38 13 C38.66 12.67 39.32 12.34 40 12 C40.66 8.7 41.32 5.4 42 2 C28.47 2 14.94 2 1 2 C1 3.65 1 5.3 1 7 C0.67 7 0.34 7 0 7 C0 4.69 0 2.38 0 0 Z " fill="#41977C" transform="translate(181,146)"/>
<path d="M0 0 C11.55 0 23.1 0 35 0 C37.34862385 8.22018349 37.34862385 8.22018349 38.1875 12.1875 C38.36667969 13.00605469 38.54585937 13.82460937 38.73046875 14.66796875 C39.01002462 17.08673475 38.74524054 18.70085366 38 21 C35.03526047 14.1682089 34.72369349 9.96062844 34 2 C23.44 2 12.88 2 2 2 C2 4.97 2 7.94 2 11 C1.71818839 13.0079077 1.40743184 15.0137698 1 17 C0.67 17 0.34 17 0 17 C0 11.39 0 5.78 0 0 Z " fill="#41977B" transform="translate(179,93)"/>
<path d="M0 0 C2.54216938 0.06530016 5.08450038 0.12459971 7.62695312 0.17773438 C13.82108622 0.3090088 19.99255132 0.5631677 26.1875 0.8125 C26.1875 9.0625 26.1875 17.3125 26.1875 25.8125 C25.8575 25.8125 25.5275 25.8125 25.1875 25.8125 C25.13851562 24.65492188 25.08953125 23.49734375 25.0390625 22.3046875 C24.96398522 20.7656033 24.88843957 19.2265419 24.8125 17.6875 C24.7815625 16.92695313 24.750625 16.16640625 24.71875 15.3828125 C24.68007813 14.63515625 24.64140625 13.8875 24.6015625 13.1171875 C24.5701416 12.43640137 24.5387207 11.75561523 24.50634766 11.05419922 C24.09530745 8.16432849 23.16600243 5.55574015 22.1875 2.8125 C15.43007074 2.50586035 8.67445765 2.29714925 1.91162109 2.15332031 C-0.38365693 2.09331726 -2.67848289 2.01167907 -4.97216797 1.90722656 C-18.70726326 0.76233462 -18.70726326 0.76233462 -31.06835938 5.53710938 C-34.10468883 8.33600998 -36.52136767 11.38546057 -38.8125 14.8125 C-39.4725 14.4825 -40.1325 14.1525 -40.8125 13.8125 C-30.31633758 -2.02306835 -17.66553561 -0.79020672 0 0 Z " fill="#71B39E" transform="translate(233.8125,185.1875)"/>
<path d="M0 0 C14.52 0 29.04 0 44 0 C44 1.65 44 3.3 44 5 C43.505 3.02 43.505 3.02 43 1 C29.14 1 15.28 1 1 1 C2.31213648 8.8354703 2.31213648 8.8354703 6 15 C8.57970348 16.55293041 11.23087946 17.82263046 14 19 C14 19.66 14 20.32 14 21 C17.63 21 21.26 21 25 21 C25 21.33 25 21.66 25 22 C10.92557503 22.8444655 10.92557503 22.8444655 5 18 C-0.42337208 12.24512595 0 8.27781951 0 0 Z " fill="#3D8F74" transform="translate(127,146)"/>
<path d="M0 0 C0 5.61 0 11.22 0 17 C-1.98 17 -3.96 17 -6 17 C-6.33 17.99 -6.66 18.98 -7 20 C-7.33 20 -7.66 20 -8 20 C-8.43718233 13.15081018 -7.34943713 6.83314478 -2.875 1.4375 C-1 0 -1 0 0 0 Z " fill="#C3F2E3" transform="translate(128,110)"/>
<path d="M0 0 C0.33 0 0.66 0 1 0 C0.949646 0.80719482 0.89929199 1.61438965 0.84741211 2.44604492 C0.83136169 9.54395315 1.77546151 13.60912097 6.69140625 18.86328125 C8.62627232 20.71890366 10.56957414 22.52384502 12.5625 24.3125 C13.57240054 25.26206924 14.57959006 26.21453038 15.58398438 27.16992188 C18.03093204 29.47637494 20.50117822 31.75007121 23 34 C22.67 34.99 22.34 35.98 22 37 C20.35093986 35.58897065 18.70267498 34.17700285 17.05810547 32.76074219 C15.71957568 31.61560852 14.37261016 30.4802377 13.01611328 29.35644531 C-0.09454559 18.36249375 -0.09454559 18.36249375 -0.96875 11.46484375 C-1.09225918 7.56297923 -0.68089521 3.83823151 0 0 Z " fill="#B5D9CE" transform="translate(92,195)"/>
<path d="M0 0 C0.99 0.33 1.98 0.66 3 1 C2.34 1.99 1.68 2.98 1 4 C0.34 4 -0.32 4 -1 4 C-1 4.66 -1 5.32 -1 6 C-4.49336818 8.32891212 -5.86007865 8.23551143 -9.98046875 8.1953125 C-11.72553711 8.18564453 -11.72553711 8.18564453 -13.50585938 8.17578125 C-14.72080078 8.15902344 -15.93574219 8.14226562 -17.1875 8.125 C-18.41404297 8.11597656 -19.64058594 8.10695313 -20.90429688 8.09765625 C-23.93639295 8.07406017 -26.96809938 8.04113841 -30 8 C-28.63016497 4.83884224 -28.0109362 4.0072908 -25 2 C-25 2.66 -25 3.32 -25 4 C-21.77085248 4.02917228 -18.54173917 4.04685663 -15.3125 4.0625 C-13.94448242 4.07506836 -13.94448242 4.07506836 -12.54882812 4.08789062 C-11.21948242 4.09272461 -11.21948242 4.09272461 -9.86328125 4.09765625 C-9.05157471 4.10289307 -8.23986816 4.10812988 -7.40356445 4.11352539 C-4.85135327 3.9929791 -2.48973863 3.559949 0 3 C0 2.01 0 1.02 0 0 Z " fill="#45B18E" transform="translate(255,248)"/>
<path d="M0 0 C11.55 0 23.1 0 35 0 C35 0.33 35 0.66 35 1 C23.78 1 12.56 1 1 1 C1.326276 9.3002837 1.326276 9.3002837 1.65820312 17.6003418 C1.95606152 25.40434989 2.05864975 33.19062327 2 41 C0.04718353 38.0707753 -0.44689608 36.55521556 -1.0625 33.1875 C-1.22621094 32.30707031 -1.38992187 31.42664063 -1.55859375 30.51953125 C-2.05568978 27.68212468 -2.55072288 24.84542179 -3 22 C-2.67 22.99 -2.34 23.98 -2 25 C-1.34 25 -0.68 25 0 25 C0 16.75 0 8.5 0 0 Z " fill="#27483D" transform="translate(221,93)"/>
<path d="M0 0 C3.41158256 1.13719419 4.11854601 2.04342944 6 5 C6 5.66 6 6.32 6 7 C8.97 7.495 8.97 7.495 12 8 C12 8.66 12 9.32 12 10 C15.06255961 10.0270491 18.1248786 10.04686298 21.1875 10.0625 C22.48397461 10.07506836 22.48397461 10.07506836 23.80664062 10.08789062 C28.00286769 10.10396812 31.90936886 10.07559038 36 9 C33.46241955 12.80637067 32.44016128 13.00479144 28 14 C19.57022344 14.92314556 12.98967031 13.98199905 6 9 C3.70015911 6.85654829 1.65959799 4.67829431 0 2 C0 1.34 0 0.68 0 0 Z " fill="#4CAF8F" transform="translate(182,154)"/>
<path d="M0 0 C0.77943466 0.00222061 1.55886932 0.00444122 2.36192322 0.00672913 C3.68317955 0.00684242 3.68317955 0.00684242 5.03112793 0.00695801 C5.98841293 0.01211929 6.94569794 0.01728058 7.93199158 0.02259827 C9.39480812 0.02472069 9.39480812 0.02472069 10.88717651 0.02688599 C14.01542675 0.03250319 17.14360656 0.04505859 20.27183533 0.05775452 C22.38706867 0.0627673 24.50230313 0.06733059 26.61753845 0.07142639 C31.81482829 0.0824782 37.01207678 0.09923305 42.20933533 0.12025452 C42.20933533 0.78025452 42.20933533 1.44025452 42.20933533 2.12025452 C28.01933533 2.12025452 13.82933533 2.12025452 -0.79066467 2.12025452 C-1.12066467 3.44025452 -1.45066467 4.76025452 -1.79066467 6.12025452 C-2.17285234 4.46410794 -2.50461569 2.79568427 -2.79066467 1.12025452 C-1.79066467 0.12025452 -1.79066467 0.12025452 0 0 Z " fill="#18372D" transform="translate(235.79066467285156,144.87974548339844)"/>
<path d="M0 0 C5.4611399 1.49740933 5.4611399 1.49740933 8 3 C9.5 6.6875 9.5 6.6875 10 10 C13.96 10 17.92 10 22 10 C22 10.33 22 10.66 22 11 C15.07 11 8.14 11 1 11 C0.67 7.37 0.34 3.74 0 0 Z " fill="#84E2C4" transform="translate(223,128)"/>
<path d="M0 0 C1.65 0 3.3 0 5 0 C5.33 1.32 5.66 2.64 6 4 C6.66 4 7.32 4 8 4 C8.33 6.64 8.66 9.28 9 12 C5.61976483 12 3.16531063 11.12544378 0 10 C0 6.7 0 3.4 0 0 Z " fill="#DAF7EE" transform="translate(223,116)"/>
<path d="M0 0 C11.55 0 23.1 0 35 0 C39 9 39 9 38 13 C36 12 36 12 35.40234375 10.22265625 C35.24894531 9.50980469 35.09554687 8.79695313 34.9375 8.0625 C34.44690289 5.82845863 34.02602198 4.05204395 33 2 C22.44 1.67 11.88 1.34 1 1 C1 9.58 1 18.16 1 27 C0.67 27 0.34 27 0 27 C0 18.09 0 9.18 0 0 Z " fill="#5EB398" transform="translate(222,94)"/>
<path d="M0 0 C13.53 0 27.06 0 41 0 C39 4 39 4 37 5 C37 3.68 37 2.36 37 1 C27.1 1.33 17.2 1.66 7 2 C7 3.98 7 5.96 7 8 C5.8274869 7.04882866 4.66212985 6.08882991 3.5 5.125 C2.8503125 4.59132812 2.200625 4.05765625 1.53125 3.5078125 C1.0259375 3.01023438 0.520625 2.51265625 0 2 C0 1.34 0 0.68 0 0 Z " fill="#68BEA2" transform="translate(155,186)"/>
<path d="M0 0 C11.22 0 22.44 0 34 0 C34 0.33 34 0.66 34 1 C32.62279785 0.99830811 32.62279785 0.99830811 31.21777344 0.99658203 C27.80256144 1.00652254 24.3897762 1.04310625 20.97509766 1.09765625 C19.49895315 1.11579627 18.02263906 1.1233883 16.54638672 1.12011719 C14.42022058 1.11725366 12.29755523 1.15261821 10.171875 1.1953125 C8.8940918 1.20578613 7.61630859 1.21625977 6.29980469 1.22705078 C2.75420678 1.70965237 2.75420678 1.70965237 0.59082031 4.87451172 C-0.85255425 7.710313 -1.46939976 9.90483196 -2 13 C-2.99 13.495 -2.99 13.495 -4 14 C-4.65772428 17.02934491 -4.65772428 17.02934491 -5 20 C-5.99 20 -6.98 20 -8 20 C-6.82593837 15.30375349 -5.27057812 11.26726036 -3 6.9921875 C-1.86222378 4.72552393 -0.94192016 2.35480039 0 0 Z " fill="#54BC9B" transform="translate(95,94)"/>
<path d="M0 0 C14.52 0 29.04 0 44 0 C42 6 42 6 40 8 C40.33 5.69 40.66 3.38 41 1 C27.8 1 14.6 1 1 1 C0.67 4.63 0.34 8.26 0 12 C-0.33 12 -0.66 12 -1 12 C-1.02698189 10.37509046 -1.04638757 8.75005367 -1.0625 7.125 C-1.07410156 6.22007812 -1.08570312 5.31515625 -1.09765625 4.3828125 C-1 2 -1 2 0 0 Z " fill="#55C7A2" transform="translate(73,147)"/>
<path d="M0 0 C0.66 0 1.32 0 2 0 C2.33 2.31 2.66 4.62 3 7 C15.54 7 28.08 7 41 7 C41 5.02 41 3.04 41 1 C43 4 43 4 43 8 C28.81 8 14.62 8 0 8 C0 5.36 0 2.72 0 0 Z " fill="#9CE8D0" transform="translate(179,131)"/>
<path d="M0 0 C0.33 0 0.66 0 1 0 C1 2.64 1 5.28 1 8 C13.54 8 26.08 8 39 8 C39.33 6.02 39.66 4.04 40 2 C40.66 1.34 41.32 0.68 42 0 C42 2.97 42 5.94 42 9 C27.81 9 13.62 9 -1 9 C-0.67 6.03 -0.34 3.06 0 0 Z " fill="#94E4CB" transform="translate(130,130)"/>
<path d="M0 0 C0.66 0.33 1.32 0.66 2 1 C1.67 1.33 1.34 1.66 1 2 C9.7713859 2.89427808 18.43723836 3.12469647 27.25 3.0625 C28.48363281 3.05798828 29.71726563 3.05347656 30.98828125 3.04882812 C33.99224069 3.03718487 36.99609266 3.02083376 40 3 C40 3.66 40 4.32 40 5 C25.81 5 11.62 5 -3 5 C-3 4.01 -3 3.02 -3 2 C-2.01 1.34 -1.02 0.68 0 0 Z " fill="#78E2C0" transform="translate(161,172)"/>
<path d="M0 0 C0.66 0.33 1.32 0.66 2 1 C-1.68584435 6.96755751 -8.42891778 10.49433781 -14.98046875 12.65234375 C-21.10997257 13.70751946 -27.73368952 14.19246598 -33.25 11 C-34.1575 10.34 -35.065 9.68 -36 9 C-34.68 8.67 -33.36 8.34 -32 8 C-31.67 8.99 -31.34 9.98 -31 11 C-25.39 11 -19.78 11 -14 11 C-14 10.34 -14 9.68 -14 9 C-13.32453125 8.68546875 -12.6490625 8.3709375 -11.953125 8.046875 C-5.32416431 4.93666114 -5.32416431 4.93666114 0 0 Z " fill="#3D9A7C" transform="translate(111,155)"/>
<path d="M0 0 C13.2 0 26.4 0 40 0 C40 0.33 40 0.66 40 1 C38.88963379 1.01458252 37.77926758 1.02916504 36.63525391 1.04418945 C32.52375746 1.10207125 28.41281457 1.17930364 24.30175781 1.26245117 C22.52092458 1.2957484 20.73998459 1.32376531 18.95898438 1.34643555 C16.40188001 1.37989432 13.84575824 1.43220301 11.2890625 1.48828125 C10.49005524 1.49467117 9.69104797 1.5010611 8.86782837 1.50764465 C6.3870923 1.53954217 6.3870923 1.53954217 3 2 C0.87491756 5.18762365 0.4979837 7.26512223 0 11 C0.99 11.33 1.98 11.66 3 12 C3 12.99 3 13.98 3 15 C1.68 14.34 0.36 13.68 -1 13 C-1.02708567 11.39592672 -1.04643483 9.7917215 -1.0625 8.1875 C-1.07410156 7.29417969 -1.08570312 6.40085938 -1.09765625 5.48046875 C-1 3 -1 3 0 0 Z " fill="#72E1BE" transform="translate(74,148)"/>
<path d="M0 0 C0.99 0.33 1.98 0.66 3 1 C2.55237423 5.32365805 -0.26011356 7.59984015 -3.25 10.4375 C-3.72824219 10.90220703 -4.20648438 11.36691406 -4.69921875 11.84570312 C-6.12880275 13.2346079 -7.56438098 14.61733414 -9 16 C-10.67426034 17.65929178 -12.33774681 19.32864688 -14 21 C-15.32 20.34 -16.64 19.68 -18 19 C-18 18.34 -18 17.68 -18 17 C-16.80375 16.443125 -15.6075 15.88625 -14.375 15.3125 C-7.06604806 11.60637066 -3.14968575 7.46660798 0 0 Z " fill="#163B30" transform="translate(230,157)"/>
<path d="M0 0 C0.33 0.99 0.66 1.98 1 3 C-2.0710434 6.15803548 -5.15880502 9.29919682 -8.25 12.4375 C-9.12269531 13.33533203 -9.99539062 14.23316406 -10.89453125 15.15820312 C-11.73886719 16.01220703 -12.58320313 16.86621094 -13.453125 17.74609375 C-14.61569824 18.93223267 -14.61569824 18.93223267 -15.80175781 20.14233398 C-17.97282908 21.9770387 -19.22375431 22.62116966 -22 23 C-17.47008204 17.56266945 -12.65705784 12.53541069 -7.625 7.5625 C-6.88894531 6.83095703 -6.15289062 6.09941406 -5.39453125 5.34570312 C-3.59863926 3.56147277 -1.80044015 1.77963876 0 0 Z " fill="#78B8A4" transform="translate(165,227)"/>
<path d="M0 0 C0.66 0 1.32 0 2 0 C2.53625 0.845625 3.0725 1.69125 3.625 2.5625 C7.02904902 7.89002653 11.81798798 12.66941948 18 14.4375 C18.99 14.623125 19.98 14.80875 21 15 C20.67 16.32 20.34 17.64 20 19 C14.19546 19 11.99158026 15.9396452 8 12 C0.79966397 4.56517027 0.79966397 4.56517027 0 0 Z " fill="#368B70" transform="translate(119,158)"/>
<path d="M0 0 C10.56 0 21.12 0 32 0 C31.67 0.66 31.34 1.32 31 2 C16.15 1.505 16.15 1.505 1 1 C1 5.95 1 10.9 1 16 C0.34 18.31 -0.32 20.62 -1 23 C-1.33 23 -1.66 23 -2 23 C-2.327382 14.97914107 -1.10600358 8.29502686 0 0 Z " fill="#85E5C7" transform="translate(181,95)"/>
<path d="M0 0 C0.66 0 1.32 0 2 0 C2 8.58 2 17.16 2 26 C0.35 26.33 -1.3 26.66 -3 27 C-3 27.99 -3 28.98 -3 30 C-4.65 30.33 -6.3 30.66 -8 31 C-8 30.34 -8 29.68 -8 29 C-7.05125 28.29875 -6.1025 27.5975 -5.125 26.875 C-2.23947446 24.49988582 -0.96249006 22.43232359 -0.234375 18.66796875 C0.31081958 12.46183716 0.135922 6.22220731 0 0 Z " fill="#70C4A9" transform="translate(258,221)"/>
<path d="M0 0 C0.66 0.33 1.32 0.66 2 1 C1.67 1.66 1.34 2.32 1 3 C1.66 3.33 2.32 3.66 3 4 C1.76600937 5.36877116 0.51219377 6.71969166 -0.75 8.0625 C-1.44609375 8.81660156 -2.1421875 9.57070312 -2.859375 10.34765625 C-5 12 -5 12 -7.265625 11.74609375 C-7.83796875 11.49988281 -8.4103125 11.25367188 -9 11 C-7.71480435 8.13302508 -6.42870746 6.02392288 -4 4 C-3.34 4 -2.68 4 -2 4 C-2 3.34 -2 2.68 -2 2 C-1.34 2 -0.68 2 0 2 C0 1.34 0 0.68 0 0 Z " fill="#97DCC6" transform="translate(154,223)"/>
<path d="M0 0 C2.475 0.99 2.475 0.99 5 2 C5 3.32 5 4.64 5 6 C6.32 6.33 7.64 6.66 9 7 C9 7.99 9 8.98 9 10 C10.32 10.33 11.64 10.66 13 11 C12.67 12.32 12.34 13.64 12 15 C7.71 10.71 3.42 6.42 -1 2 C-0.67 1.34 -0.34 0.68 0 0 Z " fill="#82BBA9" transform="translate(193,223)"/>
<path d="M0 0 C1.485 0.99 1.485 0.99 3 2 C3.2487793 4.24658203 3.2487793 4.24658203 3.07421875 7.0078125 C3.01943359 7.99394531 2.96464844 8.98007813 2.90820312 9.99609375 C2.83537109 11.02863281 2.76253906 12.06117188 2.6875 13.125 C2.62626953 14.16527344 2.56503906 15.20554688 2.50195312 16.27734375 C2.34837505 18.85273 2.18048829 21.42638232 2 24 C-0.16926659 20.74610012 -0.24080049 19.86604043 -0.1953125 16.11328125 C-0.18886719 15.17548828 -0.18242188 14.23769531 -0.17578125 13.27148438 C-0.15902344 12.29501953 -0.14226562 11.31855469 -0.125 10.3125 C-0.11597656 9.32443359 -0.10695313 8.33636719 -0.09765625 7.31835938 C-0.0740843 4.87866235 -0.04118022 2.43945303 0 0 Z " fill="#76DCBC" transform="translate(92,221)"/>
<path d="M0 0 C0.33 0 0.66 0 1 0 C1.33 1.65 1.66 3.3 2 5 C2.33 4.34 2.66 3.68 3 3 C4.98 3 6.96 3 9 3 C8.67 4.65 8.34 6.3 8 8 C5.36 8.33 2.72 8.66 0 9 C-1.15941038 5.52176885 -0.70820884 3.54104422 0 0 Z " fill="#A9EDD7" transform="translate(119,124)"/>
<path d="M0 0 C8.25 0 16.5 0 25 0 C25 1.98 25 3.96 25 6 C24.01 6.66 23.02 7.32 22 8 C22 5.69 22 3.38 22 1 C14.74 1 7.48 1 0 1 C0 0.67 0 0.34 0 0 Z " fill="#61DCB5" transform="translate(104,95)"/>
<path d="M0 0 C2.1519437 3.22791555 2.20086443 4.28400809 2 8 C-1.38023517 8 -3.83468937 7.12544378 -7 6 C-7 5.01 -7 4.02 -7 3 C-4.69 3 -2.38 3 0 3 C0 2.01 0 1.02 0 0 Z " fill="#C6F2E4" transform="translate(230,120)"/>
<path d="M0 0 C0.33 0 0.66 0 1 0 C2.11165232 4.4378561 2.11527763 8.76956386 2.0625 13.3125 C2.05798828 14.05306641 2.05347656 14.79363281 2.04882812 15.55664062 C2.03712175 17.37112899 2.01918898 19.18557534 2 21 C1.67 21 1.34 21 1 21 C0.67 16.38 0.34 11.76 0 7 C-1.65 8.65 -3.3 10.3 -5 12 C-4.53981898 7.85837086 -4.14493915 5.75182176 -1 3 C-0.67 2.01 -0.34 1.02 0 0 Z " fill="#A1DECA" transform="translate(127,104)"/>
<path d="M0 0 C0.99 0.33 1.98 0.66 3 1 C-1.14383918 3.99145723 -4.12128981 4.38190014 -9.1875 4.3125 C-10.41855469 4.30863281 -11.64960938 4.30476562 -12.91796875 4.30078125 C-16 4 -16 4 -18 2 C-16.86820313 1.93941406 -15.73640625 1.87882813 -14.5703125 1.81640625 C-13.08852855 1.73200083 -11.6067584 1.64735283 -10.125 1.5625 C-9.37863281 1.52318359 -8.63226563 1.48386719 -7.86328125 1.44335938 C-3.80013136 1.28426376 -3.80013136 1.28426376 0 0 Z " fill="#62D1AD" transform="translate(215,163)"/>
<path d="M0 0 C0.66 0 1.32 0 2 0 C3.19088986 5.38027025 4.2919519 10.45291384 4 16 C1.34493073 13.59384348 0.07835303 11.82040233 -0.265625 8.21875 C-0.25145444 5.46966145 -0.17296687 2.74344679 0 0 Z " fill="#7EE4C3" transform="translate(223,95)"/>
<path d="M0 0 C1.1055189 0.93590504 2.20935453 1.87379858 3.3125 2.8125 C3.92738281 3.33457031 4.54226562 3.85664063 5.17578125 4.39453125 C6.85424679 5.87172469 8.43882034 7.40039131 10 9 C9.67 9.66 9.34 10.32 9 11 C5.01618925 8.83735988 2.11016455 6.28788824 -1 3 C-0.67 2.01 -0.34 1.02 0 0 Z " fill="#80D0B6" transform="translate(115,230)"/>
<path d="M0 0 C0.33 0 0.66 0 1 0 C1.1080023 2.10304477 1.18558987 4.20766909 1.25 6.3125 C1.29640625 7.48425781 1.3428125 8.65601563 1.390625 9.86328125 C1 13 1 13 -0.828125 14.91796875 C-3 16 -3 16 -6 16 C-5.1875 14.0625 -5.1875 14.0625 -4 12 C-3.01 11.67 -2.02 11.34 -1 11 C-0.67 7.37 -0.34 3.74 0 0 Z " fill="#A7E5D1" transform="translate(258,198)"/>
<path d="M0 0 C0.33 0 0.66 0 1 0 C1.01417969 0.86882812 1.02835937 1.73765625 1.04296875 2.6328125 C1.1297409 10.27354666 1.1297409 10.27354666 4.5625 16.8125 C5.7690625 17.8953125 5.7690625 17.8953125 7 19 C6.34 19.66 5.68 20.32 5 21 C0.26266708 17.21759403 0.26266708 17.21759403 -0.41259766 14.08740234 C-0.49106197 11.93545537 -0.43736563 9.83710984 -0.3125 7.6875 C-0.28994141 6.94693359 -0.26738281 6.20636719 -0.24414062 5.44335938 C-0.1855815 3.62802643 -0.09590886 1.81374319 0 0 Z " fill="#A1D5C4" transform="translate(92,195)"/>
<path d="M0 0 C0 3.93448327 -1.26049854 4.64758459 -3.9375 7.4375 C-7.52948253 11.16693592 -7.52948253 11.16693592 -9 16 C-9.66 15.34 -10.32 14.68 -11 14 C-10.86126348 9.74541334 -7.84182675 7.54403586 -4.9375 4.75 C-4.01839844 3.85796875 -3.09929687 2.9659375 -2.15234375 2.046875 C-1.44207031 1.37140625 -0.73179687 0.6959375 0 0 Z " fill="#92B5A9" transform="translate(192,200)"/>
<path d="M0 0 C0.66 0.33 1.32 0.66 2 1 C-0.72478774 4.36591427 -4.06856792 5.44226276 -8 7 C-8 7.66 -8 8.32 -8 9 C-10.64 9 -13.28 9 -16 9 C-16 8.34 -16 7.68 -16 7 C-15.01257813 6.66226563 -14.02515625 6.32453125 -13.0078125 5.9765625 C-11.71343623 5.52634467 -10.41917113 5.07580716 -9.125 4.625 C-8.47402344 4.40328125 -7.82304687 4.1815625 -7.15234375 3.953125 C-4.23449455 2.93037374 -2.21443349 2.21443349 0 0 Z " fill="#58C6A2" transform="translate(166,168)"/>
<path d="M0 0 C0.33 0.99 0.66 1.98 1 3 C-2.3 6.3 -5.6 9.6 -9 13 C-9.99 12.67 -10.98 12.34 -12 12 C-8.04 8.04 -4.08 4.08 0 0 Z " fill="#7FC9B1" transform="translate(249,230)"/>
<path d="M0 0 C2.8290723 2.8290723 3.37611108 3.38144425 4 7 C4.66 6.01 5.32 5.02 6 4 C6.042721 5.66611905 6.04063832 7.33382885 6 9 C5.67 9.33 5.34 9.66 5 10 C3.35 10 1.7 10 0 10 C0 6.7 0 3.4 0 0 Z " fill="#B9F0DE" transform="translate(223,106)"/>
<path d="M0 0 C4.66666667 4.66666667 9.33333333 9.33333333 14 14 C11 14 11 14 8.58984375 11.8125 C7.71457031 10.884375 6.83929688 9.95625 5.9375 9 C4.32794713 7.29827009 2.68926931 5.62262575 1 4 C0.34 4 -0.32 4 -1 4 C-0.67 2.68 -0.34 1.36 0 0 Z " fill="#76C8AD" transform="translate(95,223)"/>
<path d="M0 0 C1.32 0 2.64 0 4 0 C4.62638406 9.93514711 4.62638406 9.93514711 2.125 14.1875 C0 16 0 16 -2 16 C-1.625 14.0625 -1.625 14.0625 -1 12 C-0.34 11.67 0.32 11.34 1 11 C1.68931344 8.65092125 1.68931344 8.65092125 2.125 5.9375 C2.29257813 5.01839844 2.46015625 4.09929687 2.6328125 3.15234375 C2.75398437 2.44207031 2.87515625 1.73179687 3 1 C2.01 0.67 1.02 0.34 0 0 Z " fill="#57C6A2" transform="translate(220,147)"/>
<path d="M0 0 C0.66 0.33 1.32 0.66 2 1 C-1.15699272 5.54606951 -4.075623 7.66740037 -9 10 C-11.9375 10.25 -11.9375 10.25 -14 10 C-11.02639238 8.01759492 -7.99568517 6.16405979 -4.9375 4.31640625 C-3.04785419 3.03251383 -1.55472419 1.66646999 0 0 Z " fill="#55C5A1" transform="translate(111,155)"/>
<path d="M0 0 C2.03833424 1.2739589 4.03852126 2.61061923 6 4 C6 4.66 6 5.32 6 6 C6.66 6 7.32 6 8 6 C7.34 7.32 6.68 8.64 6 10 C2.46413986 6.82679218 0.41421969 4.83256305 0 0 Z " fill="#C1D9D1" transform="translate(183,212)"/>
<path d="M0 0 C-1.40844718 3.21524305 -3.10344786 5.32183868 -5.625 7.75 C-6.57246094 8.67039063 -6.57246094 8.67039063 -7.5390625 9.609375 C-8.02117187 10.06828125 -8.50328125 10.5271875 -9 11 C-9.33 10.01 -9.66 9.02 -10 8 C-8.71451591 6.66070495 -7.42141845 5.32871357 -6.125 4 C-5.04605469 2.88625 -5.04605469 2.88625 -3.9453125 1.75 C-2 0 -2 0 0 0 Z " fill="#C7E3DA" transform="translate(255,213)"/>
<path d="M0 0 C0 2.31 0 4.62 0 7 C-1.98 7 -3.96 7 -6 7 C-5.60799596 4.15797072 -5.2043974 3.17884772 -3 1.25 C-1 0 -1 0 0 0 Z " fill="#DCF7EF" transform="translate(128,116)"/>
<path d="M0 0 C0 1.32 0 2.64 0 4 C-2.97 4 -5.94 4 -9 4 C-8.67 3.01 -8.34 2.02 -8 1 C-5.17884816 -0.07009208 -3.09455459 0 0 0 Z " fill="#6ADDB8" transform="translate(128,135)"/>
<path d="M0 0 C2.58347022 1.29173511 2.94936092 2.34086037 4 5 C4.1953125 7.359375 4.1953125 7.359375 4.125 9.75 C4.10695312 10.54921875 4.08890625 11.3484375 4.0703125 12.171875 C4.03550781 13.07679688 4.03550781 13.07679688 4 14 C2.5393715 11.35261084 2 10.10551666 2 7 C1.34 7 0.68 7 0 7 C0 4.69 0 2.38 0 0 Z " fill="#B9F0DF" transform="translate(179,124)"/>
<path d="M0 0 C0.66 0 1.32 0 2 0 C2.97138094 1.40682757 3.93538756 2.81976519 4.84765625 4.265625 C6.68455093 7.03030717 8.84130311 9.48152029 11 12 C8 12 8 12 6.2109375 10.390625 C5.60507813 9.68421875 4.99921875 8.9778125 4.375 8.25 C3.76398438 7.55390625 3.15296875 6.8578125 2.5234375 6.140625 C1.01742732 4.02448762 0.42274686 2.53648117 0 0 Z " fill="#1B4739" transform="translate(119,158)"/>
<path d="M0 0 C-1.77801198 2.05875071 -2.99176113 2.99678483 -5.5625 4 C-8.31238322 4.86272409 -8.31238322 4.86272409 -10 8 C-10.66 7.67 -11.32 7.34 -12 7 C-5.17241379 -1.72413793 -5.17241379 -1.72413793 0 0 Z " fill="#99E2CB" transform="translate(237,233)"/>
<path d="M0 0 C0.99 0 1.98 0 3 0 C3 2.97 3 5.94 3 9 C2.34 9 1.68 9 1 9 C-0.4783226 6.04335481 -0.06032783 3.25770263 0 0 Z " fill="#D3F4EA" transform="translate(169,117)"/>
<path d="M0 0 C1.98 1.65 3.96 3.3 6 5 C5.67 5.99 5.34 6.98 5 8 C3.02 6.35 1.04 4.7 -1 3 C-0.67 2.01 -0.34 1.02 0 0 Z " fill="#9CD4C2" transform="translate(109,224)"/>
<path d="M0 0 C0.99 0.33 1.98 0.66 3 1 C0.36 3.64 -2.28 6.28 -5 9 C-5.33 8.01 -5.66 7.02 -6 6 C-4.02 4.02 -2.04 2.04 0 0 Z " fill="#7ECBB2" transform="translate(189,191)"/>
<path d="M0 0 C2.97 0.99 5.94 1.98 9 3 C9 3.33 9 3.66 9 4 C5.04 4 1.08 4 -3 4 C-2.01 3.67 -1.02 3.34 0 3 C0 2.01 0 1.02 0 0 Z " fill="#8BE5C8" transform="translate(247,172)"/>
<path d="M0 0 C-1.32 1.65 -2.64 3.3 -4 5 C-5.32 4.34 -6.64 3.68 -8 3 C-8 2.34 -8 1.68 -8 1 C-3.375 -1.125 -3.375 -1.125 0 0 Z " fill="#44AF8D" transform="translate(220,173)"/>
<path d="M0 0 C2.31 0.33 4.62 0.66 7 1 C7 1.66 7 2.32 7 3 C7.99 3 8.98 3 10 3 C10.33 3.99 10.66 4.98 11 6 C6.14922412 4.88059018 3.222107 3.8665284 0 0 Z " fill="#44A989" transform="translate(244,161)"/>
<path d="M0 0 C0 0.66 0 1.32 0 2 C-2.64 2 -5.28 2 -8 2 C-8 1.01 -8 0.02 -8 -1 C-4.59745511 -2.2151946 -3.06748874 -1.86240388 0 0 Z " fill="#6AE0BA" transform="translate(232,137)"/>
<path d="M0 0 C2.64 0.99 5.28 1.98 8 3 C8 3.66 8 4.32 8 5 C5.69 5 3.38 5 1 5 C0.67 3.35 0.34 1.7 0 0 Z " fill="#96E7CD" transform="translate(223,128)"/>
<path d="M0 0 C0.33 0 0.66 0 1 0 C1 4.95 1 9.9 1 15 C0.01 15.33 -0.98 15.66 -2 16 C-1.34 10.72 -0.68 5.44 0 0 Z " fill="#B8F0DE" transform="translate(182,100)"/>
<path d="M0 0 C2.32240046 2.85021875 3.93906527 5.46355091 5 9 C4.625 11.3125 4.625 11.3125 4 13 C3.34 12.67 2.68 12.34 2 12 C0.73238238 7.70418473 0 4.49055702 0 0 Z " fill="#4CA387" transform="translate(256,94)"/>
<path d="M0 0 C0.33 0.99 0.66 1.98 1 3 C-1.31 4.98 -3.62 6.96 -6 9 C-6.66 8.67 -7.32 8.34 -8 8 C-5.36 5.36 -2.72 2.72 0 0 Z " fill="#55AA8F" transform="translate(151,241)"/>
<path d="M0 0 C2.475 0.99 2.475 0.99 5 2 C5 3.65 5 5.3 5 7 C3.02 5.35 1.04 3.7 -1 2 C-0.67 1.34 -0.34 0.68 0 0 Z " fill="#A4CABE" transform="translate(193,223)"/>
<path d="M0 0 C0.66 0 1.32 0 2 0 C2.66 2.64 3.32 5.28 4 8 C2.68 8 1.36 8 0 8 C0 5.36 0 2.72 0 0 Z " fill="#8AE6C9" transform="translate(179,131)"/>
<path d="M0 0 C-0.99 1.32 -1.98 2.64 -3 4 C-4.32 3.67 -5.64 3.34 -7 3 C-7 2.01 -7 1.02 -7 0 C-3.98968256 -0.93423645 -3.13349732 -1.04449911 0 0 Z " fill="#45A787" transform="translate(223,247)"/>
<path d="M0 0 C2.84383123 1.2748209 5.13754018 2.45137078 7 5 C6.6875 7.1875 6.6875 7.1875 6 9 C5.67 8.01 5.34 7.02 5 6 C4.34 6 3.68 6 3 6 C2.67 5.01 2.34 4.02 2 3 C1.34 2.67 0.68 2.34 0 2 C0 1.34 0 0.68 0 0 Z " fill="#A4D3C4" transform="translate(163,206)"/>
<path d="M0 0 C1.98 0 3.96 0 6 0 C6 2.31 6 4.62 6 7 C1.125 2.25 1.125 2.25 0 0 Z " fill="#6CC4A8" transform="translate(156,187)"/>
<path d="M0 0 C3.63 0 7.26 0 11 0 C11 2.64 11 5.28 11 8 C10.67 8 10.34 8 10 8 C9.34 6.02 8.68 4.04 8 2 C5.36 1.67 2.72 1.34 0 1 C0 0.67 0 0.34 0 0 Z " fill="#74CFB1" transform="translate(248,186)"/>
<path d="M0 0 C0.99 0.33 1.98 0.66 3 1 C2.60196439 3.88575819 2.20990931 4.82189513 -0.0625 6.75 C-0.701875 7.1625 -1.34125 7.575 -2 8 C-1.47731534 5.23723823 -0.89130413 2.6739124 0 0 Z " fill="#1F5141" transform="translate(230,157)"/>
<path d="M0 0 C0.33 0 0.66 0 1 0 C1 2.64 1 5.28 1 8 C1.99 8.33 2.98 8.66 4 9 C4 9.99 4 10.98 4 12 C2.68 11.34 1.36 10.68 0 10 C0 6.7 0 3.4 0 0 Z " fill="#61D5B0" transform="translate(73,151)"/>
<path d="M0 0 C2.04219706 1.69179328 2.91793306 2.63727666 3.51171875 5.26171875 C3.56972656 6.06222656 3.62773437 6.86273438 3.6875 7.6875 C3.75324219 8.49574219 3.81898438 9.30398437 3.88671875 10.13671875 C3.92410156 10.75160156 3.96148437 11.36648437 4 12 C2 11 2 11 0.875 7.6875 C0 4 0 4 0 0 Z " fill="#6CB49D" transform="translate(214,102)"/>
<path d="M0 0 C0.99 0.66 1.98 1.32 3 2 C0.03 4.475 0.03 4.475 -3 7 C-2.25 2.25 -2.25 2.25 0 0 Z " fill="#A7DECD" transform="translate(240,225)"/>
<path d="M0 0 C1.485 0.99 1.485 0.99 3 2 C2.34 5.3 1.68 8.6 1 12 C0.67 12 0.34 12 0 12 C0 8.04 0 4.08 0 0 Z " fill="#A1DAC8" transform="translate(92,221)"/>
<path d="M0 0 C0.33 0.99 0.66 1.98 1 3 C0 4 0 4 -3.0625 4.0625 C-4.5165625 4.0315625 -4.5165625 4.0315625 -6 4 C-4 1 -4 1 -1.875 0.3125 C-1.25625 0.209375 -0.6375 0.10625 0 0 Z " fill="#9AE8D0" transform="translate(127,128)"/>
<path d="M0 0 C1.39195915 4.17587745 -0.17676781 6.13474776 -2 10 C-2.33 10 -2.66 10 -3 10 C-2.25 3.375 -2.25 3.375 0 0 Z " fill="#B0DBCD" transform="translate(85,120)"/>
<path d="M0 0 C0.33 0 0.66 0 1 0 C1.26252625 4.33168317 0.29243536 7.8803623 -1 12 C-1.33 12 -1.66 12 -2 12 C-2.28571429 3.42857143 -2.28571429 3.42857143 0 0 Z " fill="#98D5C2" transform="translate(181,106)"/>
</svg>
